<svg width="24" height="24" fill="none" xmlns="http://www.w3.org/2000/svg"><path fill-rule="evenodd" clip-rule="evenodd" d="M1.5 8.4A2.4 2.4 0 013.9 6h13.2a2.4 2.4 0 012.103 1.243c1.267.021 2.29.16 3.046.5.481.217.882.528 1.157.963.273.431.385.924.394 1.442.011.618-.275 1.185-.659 1.65-.389.471-.927.9-1.548 1.262-1.03.6-2.358 1.057-3.8 1.214a9.05 9.05 0 01-2.316 2.226H19.5a1.5 1.5 0 010 3H3a1.5 1.5 0 010-3h2.523A8.992 8.992 0 011.5 9v-.6zm17.258 4.185a7.894 7.894 0 002.08-.821c.511-.298.898-.62 1.146-.921.255-.308.319-.537.317-.668-.006-.32-.073-.526-.162-.667-.087-.138-.235-.275-.506-.398-.44-.198-1.122-.322-2.133-.358V9a8.97 8.97 0 01-.742 3.585z" fill="#DCE0E4"/></svg>