<svg width="12" height="12" fill="none" xmlns="http://www.w3.org/2000/svg"><path fill-rule="evenodd" clip-rule="evenodd" d="M9.462 2.77H2.538a.769.769 0 00-.674.4L6 5.714l4.136-2.546a.769.769 0 00-.674-.4zM11 3.537C11 2.688 10.311 2 9.462 2H2.538C1.688 2 1 2.689 1 3.538v4.616c0 .85.689 1.538 1.538 1.538h6.924c.85 0 1.538-.688 1.538-1.538V3.538zm-.77 3.847V4.012L8.144 5.297l2.088 2.088zM7.47 5.71l2.712 2.713a.77.77 0 01-.72.5H2.538a.77.77 0 01-.72-.5L4.53 5.71 6 6.615l1.47-.904zm-5.7 1.674l2.087-2.088L1.77 4.012v3.373z" fill="#93999F"/></svg>