<svg width="24" height="24" fill="none" xmlns="http://www.w3.org/2000/svg"><path d="M15.938 12a3.938 3.938 0 11-7.876 0 3.938 3.938 0 017.876 0zM10.5 2.813c0-.725.588-1.313 1.313-1.313h.374c.725 0 1.313.588 1.313 1.313v1.874C13.5 5.412 12.912 6 12.187 6h-.374A1.312 1.312 0 0110.5 4.687V2.813zm0 16.5c0-.725.588-1.313 1.313-1.313h.374c.725 0 1.313.588 1.313 1.313v1.875c0 .724-.588 1.312-1.313 1.312h-.374a1.312 1.312 0 01-1.313-1.313v-1.875zM4.688 10.5c.724 0 1.312.588 1.312 1.313v.374c0 .725-.588 1.313-1.313 1.313H2.813A1.312 1.312 0 011.5 12.187v-.374c0-.725.588-1.313 1.313-1.313h1.874zm16.5 0c.724 0 1.312.588 1.312 1.313v.374c0 .725-.588 1.313-1.313 1.313h-1.875A1.312 1.312 0 0118 12.187v-.374c0-.725.588-1.313 1.313-1.313h1.875zm-3.934-6.572a1.312 1.312 0 011.856 0l.265.265a1.313 1.313 0 010 1.856L18.05 7.375a1.313 1.313 0 01-1.856 0l-.265-.265a1.313 1.313 0 010-1.856l1.326-1.326zM6.05 19.375a1.312 1.312 0 01-1.857 0l-.265-.265a1.313 1.313 0 010-1.856l1.326-1.326a1.312 1.312 0 011.856 0l.265.265a1.313 1.313 0 010 1.856L6.05 19.375zM7.375 5.254a1.312 1.312 0 010 1.856l-.265.265a1.312 1.312 0 01-1.856 0L3.928 6.05a1.312 1.312 0 010-1.856l.265-.265a1.312 1.312 0 011.856 0l1.326 1.326zm8.553 12.796a1.312 1.312 0 010-1.857l.265-.265a1.312 1.312 0 011.856 0l1.326 1.326a1.312 1.312 0 010 1.856l-.265.265a1.312 1.312 0 01-1.856 0l-1.326-1.326z" fill="#FBCF35"/></svg>