<svg width="14" height="14" fill="none" xmlns="http://www.w3.org/2000/svg"><rect x=".5" y=".5" width="13" height="13" rx="4.5" stroke="#64686C"/><g clip-path="url(#clip0_177:2787)" fill="#64686C"><path d="M3.5 7.673a7.67 7.67 0 011.203-.089 2.527 2.527 0 011.618.43A1.788 1.788 0 016.99 9.5a2.06 2.06 0 01-.655 1.625 2.8 2.8 0 01-1.82.52 7.509 7.509 0 01-1.016-.06V7.674zm.89 3.269c.104.008.209.008.313 0a1.218 1.218 0 001.008-.374 1.252 1.252 0 00.336-1.033A1.168 1.168 0 005.72 8.6a1.137 1.137 0 00-.924-.332c-.136 0-.272.011-.406.035v2.64zm6.805-1.362c0 1.312-.782 2.105-1.955 2.105-1.174 0-1.863-.897-1.863-2.04a1.965 1.965 0 01.51-1.474 1.917 1.917 0 011.416-.617c1.232 0 1.892.916 1.892 2.026zm-2.855.05c0 .782.367 1.336.978 1.336s.929-.599.929-1.356c0-.758-.338-1.338-.949-1.338-.61 0-.958.58-.958 1.357zM4.654 3.627h-1.07V2.87h3.045v.758H5.544v3.244h-.89V3.627zm6.189 1.203c0 1.313-.782 2.105-1.955 2.105-1.174 0-1.863-.896-1.863-2.04a1.97 1.97 0 01.51-1.475A1.922 1.922 0 018.95 2.8a1.822 1.822 0 011.396.584 1.87 1.87 0 01.496 1.446zm-2.855.05c0 .782.362 1.337.978 1.337s.948-.58.948-1.357c0-.778-.332-1.337-.948-1.337-.616 0-.978.58-.978 1.357z"/></g><defs><clipPath id="clip0_177:2787"><path fill="#fff" transform="translate(3.5 2.8)" d="M0 0h7.7v8.885H0z"/></clipPath></defs></svg>